<!-- icon666.com - MILLIONS vector ICONS FREE --><svg clip-rule="evenodd" fill-rule="evenodd" stroke-linejoin="round" stroke-miterlimit="2" viewBox="0 0 267 267" xmlns="http://www.w3.org/2000/svg"><path d="m163.535 58.489c-.58-.04-1.151.164-1.574.563s-.66.957-.654 1.538c.003.196.004.396.004.597 0 5.831-.895 11.385-2.513 16.427-.231.718-.055 1.506.46 2.057 1.332 1.429 2.898 2.333 4.539 2.61 2.181.367 4.217-.369 5.853-2.005 2.003-2.005 3.408-5.53 3.408-9.791 0-7.358-3.954-11.104-8.569-11.882-.322-.054-.641-.092-.954-.114zm-63.002 2.101c.006-.581-.231-1.139-.654-1.538s-.994-.603-1.574-.563c-.313.022-.631.06-.954.114-4.614.778-8.568 4.524-8.568 11.882 0 4.261 1.404 7.786 3.407 9.791 1.636 1.636 3.672 2.372 5.854 2.005 1.64-.277 3.206-1.181 4.539-2.61.514-.551.69-1.339.46-2.057-1.619-5.042-2.513-10.596-2.513-16.427 0-.201.001-.401.003-.597z"></path><path d="m116.659 19.103c-2.857-.058-6.345.033-9.288.584-3.254.61-5.849 1.904-6.945 3.728-10.384 17.271-3.716 33.837-3.716 33.837.278.694.905 1.186 1.645 1.291.74.104 1.479-.196 1.937-.787 0 0 6.288-8.141 12.274-12.168 1.146-.771 2.272-1.388 3.334-1.715.74-.228 1.427-.332 2.027-.102 3.787 1.457 6.032 2.055 8.107 1.823 2.096-.233 4.094-1.307 7.329-3.594.645-.456 1.675-.607 2.916-.641 2.409-.065 5.488.489 8.662 1.577 7.814 2.68 16.408 8.565 16.363 17.374-.004.794.445 1.522 1.157 1.876.711.354 1.562.271 2.193-.212 0 0 8.333-6.221 3.392-17.124.417-1.387 1.111-4.22.853-6.93-.286-2.992-1.642-5.799-5.09-7.043-3.162-1.14-9.823-6.684-17.852-10.913-8.704-4.584-18.89-7.598-28.163-3.271-.639.298-1.084.899-1.182 1.598-.039.275-.021.551.047.812z"></path><path d="m96.999 55.202c-.245.317-.394.697-.429 1.096-.137 1.566-.207 3.195-.207 4.889 0 25.231 15.669 45.464 34.557 45.464s34.557-20.233 34.557-45.464l-.027-1.782c-.498-10.211-10.261-17.443-19.464-20.514-3.643-1.216-7.168-1.784-9.92-1.694-2.196.072-3.96.589-5.108 1.4-2.416 1.708-3.82 2.682-5.385 2.856-1.586.177-3.257-.458-6.15-1.571-2.504-.963-5.834 0-9.163 2.236-6.431 4.318-13.218 13.029-13.261 13.084zm3.676 2.07c1.452-1.813 6.792-8.26 11.908-11.695 1.142-.768 2.265-1.381 3.324-1.706.737-.226 1.422-.33 2.02-.1 3.787 1.457 6.032 2.055 8.107 1.823 2.096-.233 4.094-1.307 7.329-3.594.631-.446 1.633-.599 2.84-.638 2.35-.078 5.354.443 8.464 1.481 7.672 2.56 16.181 8.224 16.62 16.728.016.544.024 1.076.024 1.616 0 22.654-13.432 41.297-30.391 41.297s-30.39-18.643-30.39-41.297c0-1.346.047-2.647.141-3.905z"></path><path d="m139.045 86.763c-1.185.346-2.835.706-4.932.915-.959.095-2.006.104-3.163.106-1.221.002-2.546.022-4.022-.183-1.282-.178-2.645-.39-4.133-.838-.609-.267-1.32.01-1.588.619-.267.609.01 1.32.619 1.588 1.847 1.087 3.561 1.841 5.209 2.327 1.365.403 2.66.621 3.871.644 1.446.029 2.762-.193 3.922-.524 2.316-.662 3.978-1.717 5.186-2.447.609-.268.886-.979.619-1.588-.268-.609-.979-.886-1.588-.619z"></path><path d="m191.417 80.263-3.174 5.487c-.487.842-1.187 1.541-2.028 2.028l-5.487 3.174c-2.247 1.301-3.63 3.7-3.63 6.296s1.383 4.995 3.63 6.295l5.487 3.174c.841.487 1.541 1.186 2.028 2.028l3.174 5.487c1.3 2.247 3.699 3.63 6.295 3.63s4.995-1.383 6.295-3.63l3.175-5.487c.487-.842 1.186-1.541 2.028-2.028l5.486-3.174c2.247-1.3 3.631-3.699 3.631-6.295s-1.384-4.995-3.631-6.296l-5.486-3.174c-.842-.487-1.541-1.186-2.028-2.028l-3.175-5.487c-1.3-2.246-3.699-3.63-6.295-3.63s-4.995 1.384-6.295 3.63zm-131.468-2.342-2.562 4.428c-.357.618-.871 1.132-1.489 1.49l-4.428 2.562c-1.937 1.121-3.13 3.189-3.13 5.428 0 2.238 1.193 4.307 3.13 5.428l4.428 2.562c.618.357 1.132.871 1.489 1.489l2.562 4.428c1.121 1.938 3.19 3.131 5.428 3.131 2.239 0 4.308-1.193 5.429-3.131l2.562-4.428c.357-.618.871-1.132 1.489-1.489l4.428-2.562c1.937-1.121 3.13-3.19 3.13-5.428 0-2.239-1.193-4.307-3.13-5.428l-4.428-2.562c-.618-.358-1.132-.872-1.489-1.49l-2.562-4.428c-1.121-1.937-3.19-3.13-5.429-3.13-2.238 0-4.307 1.193-5.428 3.13zm13.133-50.272-1.754 3.031c-.187.324-.456.593-.78.781l-3.032 1.754c-1.529.885-2.471 2.518-2.471 4.285s.942 3.4 2.471 4.285l3.032 1.754c.324.188.593.457.78.781l1.754 3.031c.885 1.53 2.518 2.471 4.285 2.471s3.401-.941 4.285-2.471l1.755-3.031c.187-.324.456-.593.78-.781l3.031-1.754c1.53-.885 2.472-2.518 2.472-4.285s-.942-3.4-2.472-4.285l-3.031-1.754c-.324-.188-.593-.457-.78-.781l-1.755-3.031c-.884-1.53-2.518-2.471-4.285-2.471s-3.4.941-4.285 2.471z"></path><path d="m133.333 169.271c-11.959-19.707-33.236-18.948-44.122-8.962-11.226 10.298-11.651 30.887-.435 51.483 7.631 14.97 27.15 30.005 43.47 39.985.667.408 1.507.408 2.174 0 16.32-9.98 35.839-25.015 43.47-39.985 11.217-20.596 10.792-41.185-.435-51.483-10.886-9.986-32.163-10.745-44.122 8.962z"></path><path d="m61.868 167.771c6.763-7.623 15.715-10.512 23.939-9.977.193-.189.389-.374.588-.556 11.422-10.477 32.917-12.38 46.938 4.81 6.502-7.971 14.61-11.837 22.575-12.646.212-.637.57-1.224 1.054-1.708.818-.817 1.926-1.276 3.082-1.276h15.684c1.156 0 2.265.459 3.083 1.276.817.818 1.276 1.927 1.276 3.083v6.294c.061.055.123.111.185.167.198.182.394.367.587.556 6.64-.432 13.754 1.368 19.809 6.089 1.544-9.791 1.536-19.562-.726-26.978-1.978-6.483-5.668-11.227-11.302-13.086-20.654-6.816-32.28-14.346-38.569-19.817-.98-.852-1.932-2.594-2.918-4.753-.252-.553-.734-.969-1.319-1.137s-1.214-.072-1.722.263c-3.98 2.624-8.456 4.109-13.192 4.109-4.565 0-8.89-1.38-12.759-3.83-.482-.305-1.069-.399-1.623-.26-.554.14-1.026.501-1.306.998-1.028 1.824-2.18 3.494-3.463 4.61-6.289 5.471-17.914 13.001-38.568 19.817-6.014 1.984-9.815 7.265-11.682 14.43-2.148 8.244-1.734 19.053.349 29.522z"></path><path d="m184.352 161.957c8.352 12.2 7.992 31.975-2.759 51.745-2.284 4.474-5.579 8.965-9.518 13.338 6.99 8.962 16.351 17.565 24.776 24.241.613.486 1.446.587 2.157.263 15.395-7.016 34.132-18.137 42.433-30.462 12.097-16.949 13.886-35.148 5.096-45.43-8.493-9.935-27.037-12.949-39.724 2.835-5.128-11.03-13.957-15.974-22.461-16.53z"></path><path d="m82.315 161.957c-8.505.556-17.333 5.5-22.46 16.53-12.689-15.784-31.233-12.77-39.725-2.835-8.79 10.282-7.002 28.481 5.096 45.43 8.301 12.325 27.038 23.446 42.432 30.462.712.324 1.545.223 2.158-.263 8.424-6.675 17.784-15.277 24.773-24.238-3.922-4.353-7.202-8.82-9.476-13.267-10.787-19.811-11.155-39.607-2.798-51.819z"></path></svg>