<!-- icon666.com - MILLIONS vector ICONS FREE --><svg clip-rule="evenodd" fill-rule="evenodd" stroke-linejoin="round" stroke-miterlimit="2" viewBox="0 0 267 267" xmlns="http://www.w3.org/2000/svg"><path d="m73.688 156.069.024.037c.189.294 1.189 1.853 2.326 3.679.005.009.011.018.017.027 1.753 2.722 3.326 5.504 4.28 8.17.837 2.338 1.217 4.564.621 6.528-1.399 4.612-5.288 5.863-6.93 6.285-2.014.518-4.126-.281-5.442-.588-.001 0-.001 0-.002 0-4.33-1.003-7.887-3.789-9.649-7.613-4.905-10.65-16.24-35.976-16.24-35.976-.004-.01-.008-.019-.013-.028-.821-1.765-1.396-3.619-1.497-5.534-.103-1.964.055-3.963.701-5.893 0 0 6.773-20.252 6.773-20.252 1.929-5.211-.902-10.785-6.383-12.429-5.331-1.599-11.184 1.236-13.107 6.289 0 0-11.638 27.919-11.638 27.919-1.819 4.365-2.837 7.775-2.94 12.333-.102 4.526 1.22 10.079 2.562 14.453 7.933 25.853 18.166 45.876 31.393 67.721.293.484.771.828 1.323.953s1.131.02 1.604-.291c.364-.24.776-.426 1.225-.547 0 0 59.531-15.951 59.531-15.951.883-.237 1.508-1.021 1.543-1.934l.697-18.59c.049-2.25-.187-4.476-.862-6.583-.672-2.094-1.609-4.115-2.953-5.915l-20.521-26.855c-2.905-4.13-8.906-5.245-13.439-2.385-4.621 2.914-5.91 8.726-3.004 12.97z"></path><path d="m192.979 156.069c2.906-4.244 1.617-10.056-3.004-12.97-4.543-2.866-10.56-1.74-13.458 2.412.019-.027-20.488 26.809-20.488 26.809-.005.006-.01.013-.014.019-1.344 1.8-2.281 3.821-2.953 5.915-.676 2.107-.911 4.333-.863 6.583l.698 18.59c.034.913.66 1.697 1.543 1.934l59.53 15.951c.45.121.862.307 1.226.547.473.311 1.052.416 1.604.291s1.029-.469 1.322-.953c13.228-21.845 23.461-41.868 31.393-67.721 1.342-4.374 2.664-9.927 2.563-14.453-.103-4.558-1.121-7.968-2.94-12.333 0 0-11.639-27.919-11.639-27.919-1.922-5.053-7.775-7.888-13.106-6.289-5.482 1.644-8.312 7.218-6.384 12.429 0 0 6.774 20.252 6.774 20.252.645 1.93.804 3.929.701 5.893-.101 1.915-.676 3.769-1.498 5.534-.004.009-.008.018-.012.028 0 0-11.336 25.326-16.241 35.976-1.762 3.824-5.318 6.61-9.648 7.613-.001 0-.002 0-.003 0-1.316.307-3.428 1.106-5.441.588-1.642-.422-5.531-1.673-6.931-6.285-.596-1.964-.216-4.19.621-6.528.955-2.666 2.528-5.448 4.281-8.17.006-.009.011-.018.017-.027 1.136-1.826 2.137-3.385 2.326-3.679z"></path><path d="m213.975 159.246c-.032.994.642 1.872 1.611 2.097.968.225 1.961-.265 2.37-1.172 4.731-10.482 9.667-21.507 9.817-21.843 1.044-2.248 1.743-4.615 1.872-7.053.13-2.479-.096-4.999-.911-7.434 0 0-4.356-13.025-4.356-13.025-.205-.614-.685-1.098-1.297-1.309-2.951-1.016-6.283-.93-9.222.476-5.764 2.758-7.889 9.463-4.773 14.986.339.718 5.606 12.216 4.889 34.277zm4.113-9.521c-.798-17.732-5.296-26.661-5.296-26.661-.018-.035-.037-.071-.057-.105-1.938-3.392-.624-7.521 2.922-9.217 1.624-.777 3.43-.928 5.117-.561.001 0 4.009 11.982 4.009 11.982.645 1.93.804 3.929.701 5.893-.101 1.915-.676 3.769-1.498 5.534-.004.009-.008.018-.012.028 0 0-2.62 5.852-5.886 13.114z"></path><path d="m48.711 160.171c.409.907 1.401 1.397 2.37 1.172s1.643-1.103 1.611-2.097c-.707-21.742 4.399-33.225 4.877-34.25 3.124-5.56.999-12.257-4.761-15.013-2.94-1.406-6.271-1.492-9.222-.476-.612.211-1.092.695-1.297 1.309l-4.357 13.025c-.814 2.435-1.04 4.955-.91 7.434.128 2.438.828 4.805 1.871 7.053.151.336 5.086 11.361 9.818 21.843zm-.133-10.438c-3.265-7.263-5.885-13.115-5.885-13.115-.004-.01-.008-.019-.013-.028-.821-1.765-1.396-3.619-1.497-5.534-.103-1.964.055-3.963.701-5.893 0 0 4.007-11.982 4.007-11.982 1.689-.367 3.495-.215 5.119.561 3.545 1.696 4.86 5.825 2.921 9.217-.02.034-.038.07-.056.105 0 0-4.499 8.93-5.297 26.666z"></path><path d="m217.956 160.171c.112-.249.174-.517.183-.79.362-11.145-.752-19.721-2.041-25.705-.12-.56-.466-1.046-.956-1.343-3.361-2.038-7.696-2.406-11.395-.636-5.672 2.713-7.751 9.325-4.65 14.752.056.098.12.191.191.279 0 0 6.712 8.516 6.227 29.931-.02.889.526 1.693 1.36 2.001.835.309 1.773.053 2.336-.635.917-1.122 1.694-2.358 2.307-3.687v-.001c1.646-3.574 4.016-8.799 6.438-14.166zm-8.429 8.503c-1.014-16.012-6.043-23.303-6.883-24.418-1.775-3.258-.491-7.178 2.901-8.8 2.143-1.026 4.612-.932 6.674.032 1.137 5.618 2.06 13.403 1.769 23.341l-.001.006c-1.578 3.496-3.127 6.916-4.46 9.839z"></path><path d="m48.527 159.381c.009.273.071.541.184.79 2.422 5.367 4.792 10.592 6.438 14.166v.001c.613 1.329 1.39 2.565 2.307 3.687.563.688 1.501.944 2.335.635.834-.308 1.381-1.112 1.361-2.001-.485-21.415 6.226-29.931 6.226-29.931.071-.088.135-.181.191-.279 3.101-5.427 1.023-12.039-4.649-14.752-3.699-1.77-8.034-1.402-11.395.636-.49.297-.836.783-.957 1.343-1.289 5.984-2.403 14.56-2.041 25.705zm8.613 9.293c-1.334-2.923-2.883-6.343-4.461-9.839-.291-9.941.631-17.728 1.767-23.344 2.064-.967 4.533-1.06 6.676-.035 3.385 1.619 4.67 5.527 2.908 8.785-.818 1.087-5.873 8.373-6.89 24.433z"></path><path d="m155.029 201.205c-2.046-.548-4.227-.261-6.062.798-1.834 1.06-3.173 2.805-3.722 4.851-.881 3.288-2.018 7.533-3.066 11.445-1.927 7.189 2.34 14.579 9.529 16.505 13.427 3.598 35.991 9.644 49.417 13.242 7.19 1.926 14.579-2.341 16.506-9.53 1.048-3.912 2.185-8.157 3.066-11.445.549-2.046.262-4.227-.798-6.061-1.059-1.835-2.804-3.174-4.85-3.723zm-1.078 4.025 60.019 16.082c.979.263 1.814.903 2.321 1.781s.644 1.921.382 2.9l-3.067 11.444c-1.331 4.967-6.436 7.915-11.402 6.584-13.427-3.598-35.991-9.644-49.417-13.241-4.967-1.331-7.914-6.436-6.584-11.403l3.067-11.445c.262-.979.903-1.813 1.781-2.32.877-.507 1.921-.644 2.9-.382z"></path><path d="m111.638 201.205-60.02 16.082c-2.046.549-3.791 1.888-4.851 3.723-1.059 1.834-1.346 4.015-.798 6.061.881 3.288 2.019 7.533 3.067 11.445 1.926 7.189 9.316 11.456 16.506 9.53 13.426-3.598 35.99-9.644 49.416-13.242 7.19-1.926 11.456-9.316 9.53-16.505-1.048-3.912-2.186-8.157-3.067-11.445-.548-2.046-1.887-3.791-3.722-4.851-1.834-1.059-4.015-1.346-6.061-.798zm1.078 4.025c.979-.262 2.022-.125 2.9.382s1.518 1.341 1.781 2.32l3.066 11.445c1.331 4.967-1.616 10.072-6.583 11.403-13.426 3.597-35.99 9.643-49.417 13.241-4.966 1.331-10.071-1.617-11.402-6.583l-3.067-11.445c-.262-.979-.125-2.022.382-2.9s1.341-1.518 2.32-1.781z"></path><path d="m97.313 37.529-1.145-.661c-17.429-10.062-39.715-4.091-49.777 13.338-.001.001-.001.002-.002.003-4.832 8.369-6.141 18.316-3.64 27.651s8.609 17.294 16.978 22.126c19.993 11.543 44.699 25.807 56.12 32.401 4.497 2.596 10.247 1.056 12.843-3.441l32.401-56.12c4.832-8.37 6.142-18.316 3.64-27.651-2.501-9.335-8.608-17.295-16.978-22.127-.001 0-.001-.001-.002-.001-17.429-10.063-39.715-4.091-49.778 13.338z"></path><circle cx="195.837" cy="49.437" r="9.032"></circle><circle cx="176.068" cy="30.04" r="11.881"></circle><path d="m169.842 49.701c1.058 8.688-.716 17.542-5.142 25.208l-30.329 52.531c1.529 3.469 5.4 5.401 9.176 4.389l49.059-13.145c7.432-1.992 13.768-6.854 17.616-13.517 3.847-6.664 4.889-14.583 2.898-22.015 0 0-.001-.001-.001-.002-4.147-15.476-20.055-24.661-35.531-20.514l-.565.152-.151-.565c-1.305-4.871-3.775-9.118-7.03-12.522z"></path></svg>