<svg width="33" height="32" viewBox="0 0 33 32" fill="none" xmlns="http://www.w3.org/2000/svg">
<g clip-path="url(#clip0_1439_547)">
<circle cx="16" cy="16" r="15" fill="white"/>
<path d="M16.4512 31.5139C25.0413 31.5139 32.0312 24.5237 32.0312 15.9338C32.0312 7.34399 25.0413 0.35376 16.4512 0.35376C7.86133 0.35376 0.861328 7.34399 0.861328 15.9338C0.861328 24.5237 7.86133 31.5139 16.4512 31.5139ZM16.4512 2.35376C23.9414 2.35376 30.0312 8.4436 30.0312 15.9338C30.0312 23.4241 23.9414 29.5139 16.4512 29.5139C8.96143 29.5139 2.86133 23.4241 2.86133 15.9338C2.86133 8.4436 8.96143 2.35376 16.4512 2.35376Z" fill="black"/>
<path d="M16.4504 26.824C22.4504 26.824 27.3306 21.9436 27.3306 15.9338C27.3306 9.93384 22.4504 5.0437 16.4504 5.0437C10.4504 5.0437 5.56055 9.93384 5.56055 15.9338C5.56055 21.9436 10.4504 26.824 16.4504 26.824ZM11.7905 14.0037L13.9504 13.6838C14.2507 13.6438 14.5105 13.4539 14.6506 13.1741L15.6106 11.2239C15.9504 10.5339 16.9407 10.5339 17.2805 11.2239L18.2405 13.1741C18.3806 13.4539 18.6406 13.6438 18.9407 13.6838L21.1006 14.0037C21.8606 14.114 22.1606 15.0437 21.6106 15.5837L20.0505 17.1038C19.8306 17.3137 19.7307 17.6238 19.7905 17.9241L20.1506 20.074C20.2805 20.8337 19.4905 21.4138 18.8105 21.054L16.8806 20.0339C16.6106 19.8938 16.2805 19.8938 16.0105 20.0339L14.0806 21.054C13.4006 21.4138 12.6106 20.8337 12.7405 20.074L13.1106 17.9241C13.1606 17.6238 13.0605 17.3137 12.8406 17.1038L11.2805 15.5837C10.7307 15.0437 11.0305 14.114 11.7905 14.0037Z" fill="black"/>
</g>
<defs>
<clipPath id="clip0_1439_547">
<rect width="33" height="32" fill="white"/>
</clipPath>
</defs>
</svg>
