<!-- icon666.com - MILLIONS vector ICONS FREE --><svg id="Layer_1" enable-background="new 0 0 500 500" viewBox="0 0 500 500" xmlns="http://www.w3.org/2000/svg"><path clip-rule="evenodd" d="m336.37 83.74-21.57-.03v-39.6c0-3.43-2.75-6.21-6.18-6.21h-10.83l27.81-37.9 27.84 37.93h-10.18-.06c-3.74-.17-6.83 2.32-6.83 6.18zm-114.75 0-21.57-.03v-39.6c0-3.43-2.75-6.21-6.18-6.21h-10.83l27.81-37.9 27.84 37.93h-10.18-.06c-3.74-.17-6.83 2.32-6.83 6.18zm-117.32 214.22.14-174.98 337.92.31-.14 174.98zm59.64-156.59c-6.49 18.37-21.29 32.68-39.97 38.58-2.75.85-4.54 3.54-4.31 6.41l.03.08-.06 48.7c0 2.69 1.76 5.07 4.31 5.87l1.98.62-.03.06c18.37 6.52 32.68 21.32 38.58 39.97.88 2.75 3.54 4.56 6.44 4.31h.09l205.14.17c2.69 0 5.07-1.76 5.87-4.31l.62-1.98.06.03c6.52-18.37 21.32-32.68 39.97-38.58 2.75-.85 4.56-3.54 4.31-6.41v-.08l.06-48.7c0-2.69-1.76-5.07-4.34-5.87l-1.96-.62v-.06c-18.37-6.52-32.68-21.32-38.58-39.97-.85-2.75-3.54-4.56-6.41-4.31h-.09l-205.14-.17c-2.69 0-5.07 1.73-5.9 4.31l-.62 1.96h-.05zm208.43 7.51c7.54 18.6 22.45 33.51 41.02 41.1l1.28.54-.03 40.45-1.28.51c-18.6 7.57-33.51 22.45-41.1 41.05l-.54 1.28-196.92-.17-.51-1.3c-7.57-18.57-22.45-33.48-41.02-41.07l-1.3-.54.06-40.45 1.28-.51c18.6-7.57 33.51-22.45 41.1-41.05l.51-1.28 196.92.17zm-93.03 109.08.11-4.68 1.64-.31c11.85-2.27 24.15-10.63 24.15-23.9.03-6.09-1.39-11.88-6.07-16.07-6.18-5.56-16.92-7.11-24.83-8.48-3.77-.65-7.68-1.28-11.31-2.47-3.15-.99-6.52-2.61-8.25-5.58-.77-1.33-1.11-2.78-1.11-4.34 0-3.34 2.38-6.15 4.99-7.99 3.63-2.58 8.16-3.88 12.64-4.2v-.06h2.04.03 2.01v.06c4.45.31 8.99 1.64 12.59 4.22 2.61 1.84 4.99 4.65 4.99 7.99v.65c.31 3.12 2.95 5.56 6.15 5.56 3.23 0 5.87-2.44 6.18-5.56v-.65c0-13.27-12.22-21.6-24.09-23.87l-1.73-.34.2-6.35c.08-3.54-2.69-6.29-6.21-6.35h-.54c-3.32.26-5.92 2.72-5.9 6.18l.03 6.55-1.7.31c-11.79 2.3-24.01 10.66-24.01 23.87-.03 6.09 1.39 11.88 6.07 16.07 6.18 5.53 16.92 7.11 24.83 8.48 3.77.65 7.68 1.28 11.31 2.47 3.15.99 6.52 2.61 8.25 5.58.77 1.33 1.11 2.78 1.11 4.34 0 3.34-2.38 6.15-4.99 7.99-1.87 1.33-3.94 2.35-6.12 3.03-5.67 1.81-12.27 1.59-17.86-.37-4.42-1.53-9.72-4.79-10.26-9.92-.37-3.37-3.43-5.87-6.8-5.5s-5.84 3.43-5.5 6.8c1.3 12.1 12.78 19.62 23.9 21.77l1.67.34-.03 6.55c0 3.4 2.78 6.18 6.18 6.18 3.34 0 6.07-2.66 6.15-6.01l.06-2.01h.03zm59.07-41.13h26.62c3.4 0 6.18-2.78 6.18-6.21s-2.78-6.21-6.18-6.21h-26.62c-3.4 0-6.18 2.78-6.18 6.21s2.78 6.21 6.18 6.21zm-156.78 0h26.59c3.43 0 6.21-2.78 6.21-6.21s-2.78-6.21-6.21-6.21h-26.59c-3.43 0-6.21 2.78-6.21 6.21s2.78 6.21 6.21 6.21zm-44.02 255.63c.45 1.08-.06 1.98-.74 2.72-.42.45-.88.85-1.3 1.25-1.45 1.3-2.95 2.52-4.42 3.74-4.42 3.57-8.96 7.06-13.55 10.46-4.54 3.34-12.16 8.31-17.72 9.18-1.28.23-2.86.54-3.54-1.11l-47.03-115.25c-.37-.88-.06-1.87.68-2.44.11-.08.2-.14.31-.23.14-.08.31-.17.45-.23.42-.26.85-.51 1.25-.79 5.3-3.52 13.49-5.5 19.76-6.6 5.1-.88 10.23-1.73 15.34-2.47 1.7-.23 3.43-.45 5.13-.62 1.42-.11 3.4-.43 4.08 1.28zm123.93-90.6 56.49-27.61c7.57-3.69 16.41-4.65 24.52-2.18l5.02 1.53-57.97 28.32-.48.23-.08.03c-1.98.77-4.11 1.36-6.15 1.93-1.98.54-4 1.05-5.98 1.47-1.53.34-8.11-1.79-10.03-2.3zm71.43 7.43c-1.16.43-3.46.48-4.73.54-2.38.08-4.76.11-7.12.08-3.49 0-7-.03-10.49-.17l-8.28-.28 72.08-35.21c5.75-2.81 12.22-4.05 18.62-3.37 4.62.48 9.84 2.1 13.38 5.16l2.58 2.21-76.01 31.01zm-136.94-12.08 77.95 20.75h.03c2.66.79 5.33 1.47 8.08 1.96 2.92.51 5.87.79 8.84 1.05 3.94.28 7.91.54 11.85.77l2.04.14c5.27.31 10.63.45 15.9.43 3.4 0 6.86-.09 10.23-.37 1.96-.17 4.9-.45 6.72-1.19l81.86-33.42c7.99-3.26 18.77-4.79 26.79-.65 1.42.74 2.95 1.76 3.85 3.12.28.4.45.85.57 1.33.96 4.2-5.24 8.31-8.25 10.12l-69.93 41.61c-.65.4-1.42.74-2.13 1.02-1.13.48-2.32.96-3.49 1.42-3.54 1.39-7.14 2.72-10.74 4.03-10.23 3.71-20.55 7.28-30.87 10.74-8.25 2.78-16.53 5.47-24.83 8.02-6.26 1.93-12.73 3.88-19.13 5.36l-.17.06h-.2c-14.97.65-29.91 1.25-44.87 1.87-28.38 1.16-56.75 2.32-85.12 3.46-1.28.06-2.55.17-3.83.37l-1.59.23-33.48-81.92 1.28-.96c1.11-.88 2.24-1.73 3.34-2.61 3.17-2.49 6.29-5.05 9.41-7.65 13.15-10.97 27.24-21.12 43.88-25.99 11.59-3.4 23.53-4.03 35.55-3.74 7.54.2 15.08.74 22.56 1.39 9.27.77 18.51 1.73 27.75 2.64 5.7.57 14.12 1.16 16.89 7.03 2.1 4.39-.57 9.33-3.83 12.3-4.88 4.45-11.76 6.12-18.2 5.95l-54.99-1.3c-3.4-.08-6.24 2.64-6.32 6.04-.06 2.83 1.84 5.39 4.59 6.09z" fill-rule="evenodd"></path></svg>